<svg width="98" height="98" viewBox="0 0 98 98" fill="none" xmlns="http://www.w3.org/2000/svg">
<path d="M48.961 0C48.961 27.042 27.042 48.961 0 48.961C27.042 48.961 48.961 70.884 48.961 97.926C48.961 70.884 70.88 48.961 97.922 48.961C70.88 48.962 48.961 27.042 48.961 0Z" fill="#FAFAFA"/>
<path d="M75.8602 7.052C75.8602 14.205 70.0632 20.002 62.9102 20.002C70.0632 20.002 75.8602 25.802 75.8602 32.954C75.8602 25.802 81.6582 20.002 88.8112 20.002C81.6582 20.001 75.8602 14.204 75.8602 7.052Z" fill="#FAFAFA"/>
<path d="M30.3004 83.371C30.3004 87.391 27.0424 90.648 23.0234 90.648C27.0424 90.648 30.3004 93.908 30.3004 97.926C30.3004 93.908 33.5594 90.648 37.5784 90.648C33.5594 90.648 30.3004 87.391 30.3004 83.371Z" fill="#FAFAFA"/>
<path d="M16.2946 64.4189C16.2946 69.1749 12.4396 73.0309 7.68359 73.0309C12.4396 73.0309 16.2946 76.8869 16.2946 81.6429C16.2946 76.8869 20.1506 73.0309 24.9066 73.0309C20.1506 73.0309 16.2946 69.1759 16.2946 64.4189Z" fill="#FAFAFA"/>
</svg>
